<svg width="79" height="13" viewBox="0 0 79 13" fill="none" xmlns="http://www.w3.org/2000/svg">
<path d="M10.2994 3C10.2994 2.44772 10.7472 2 11.2994 2H12.2994C12.8517 2 13.2994 2.44772 13.2994 3V11C13.2994 11.5523 12.8517 12 12.2994 12H11.2994C10.7472 12 10.2994 11.5523 10.2994 11V3Z" fill="black"/>
<path d="M15.2994 1C15.2994 0.447715 15.7472 0 16.2994 0H17.2994C17.8517 0 18.2994 0.447715 18.2994 1V11C18.2994 11.5523 17.8517 12 17.2994 12H16.2994C15.7472 12 15.2994 11.5523 15.2994 11V1Z" fill="black"/>
<path d="M5.29944 6.5C5.29944 5.94772 5.74715 5.5 6.29944 5.5H7.29944C7.85172 5.5 8.29944 5.94772 8.29944 6.5V11C8.29944 11.5523 7.85172 12 7.29944 12H6.29944C5.74715 12 5.29944 11.5523 5.29944 11V6.5Z" fill="black"/>
<path d="M0.299438 9C0.299438 8.44772 0.747154 8 1.29944 8H2.29944C2.85172 8 3.29944 8.44772 3.29944 9V11C3.29944 11.5523 2.85172 12 2.29944 12H1.29944C0.747154 12 0.299438 11.5523 0.299438 11V9Z" fill="black"/>
<path fill-rule="evenodd" clip-rule="evenodd" d="M34.7999 2.58753C37.2665 2.58764 39.6387 3.55505 41.4263 5.28982C41.5609 5.42375 41.7761 5.42206 41.9087 5.28603L43.1954 3.96045C43.2626 3.89146 43.3 3.798 43.2994 3.70076C43.2989 3.60353 43.2604 3.51052 43.1925 3.44234C38.5006 -1.14745 31.0985 -1.14745 26.4066 3.44234C26.3386 3.51047 26.3001 3.60345 26.2994 3.70069C26.2988 3.79792 26.3362 3.89141 26.4033 3.96045L27.6904 5.28603C27.8229 5.42226 28.0382 5.42396 28.1728 5.28982C29.9606 3.55494 32.3331 2.58752 34.7999 2.58753ZM34.8354 6.58937C36.1906 6.58929 37.4974 7.10346 38.502 8.03199C38.6378 8.16376 38.8519 8.16091 38.9843 8.02555L40.2696 6.69997C40.3373 6.63044 40.3748 6.53611 40.3739 6.4381C40.3729 6.34008 40.3335 6.24656 40.2644 6.17844C37.2053 3.27385 32.468 3.27385 29.4089 6.17844C29.3398 6.24656 29.3004 6.34013 29.2995 6.43817C29.2985 6.53622 29.3362 6.63054 29.4041 6.69997L30.689 8.02555C30.8214 8.16091 31.0355 8.16376 31.1713 8.03199C32.1752 7.10408 33.481 6.58995 34.8354 6.58937ZM37.449 9.17672C37.451 9.27501 37.4131 9.36977 37.3444 9.43863L35.1211 11.7289C35.0559 11.7962 34.9671 11.834 34.8743 11.834C34.7816 11.834 34.6928 11.7962 34.6276 11.7289L32.404 9.43863C32.3353 9.36972 32.2975 9.27492 32.2995 9.17663C32.3016 9.07834 32.3432 8.98527 32.4147 8.91938C33.8346 7.69354 35.9141 7.69354 37.334 8.91938C37.4054 8.98532 37.447 9.07843 37.449 9.17672Z" fill="black"/>
<path opacity="0.35" d="M51.7994 4C51.7994 2.067 53.3664 0.5 55.2994 0.5H72.2994C74.2324 0.5 75.7994 2.067 75.7994 4V9C75.7994 10.933 74.2324 12.5 72.2994 12.5H55.2994C53.3664 12.5 51.7994 10.933 51.7994 9V4Z" stroke="black"/>
<path opacity="0.4" d="M77.2994 5V9.22034C78.1485 8.86291 78.7006 8.0314 78.7006 7.11017C78.7006 6.18894 78.1485 5.35744 77.2994 5Z" fill="black"/>
<path d="M53.2994 4C53.2994 2.89543 54.1949 2 55.2994 2H72.2994C73.404 2 74.2994 2.89543 74.2994 4V9C74.2994 10.1046 73.404 11 72.2994 11H55.2994C54.1949 11 53.2994 10.1046 53.2994 9V4Z" fill="black"/>
</svg>
