<svg width="393" height="59" viewBox="0 0 393 59" fill="none" xmlns="http://www.w3.org/2000/svg">
<path d="M60.4956 22.9453C58.0503 22.9453 56.3081 24.6172 56.3081 26.9062V26.9219C56.3081 29.0625 57.8237 30.6406 59.9878 30.6406C61.5347 30.6406 62.5191 29.8516 62.9331 28.9609H63.0894C63.0894 29.0469 63.0816 29.1328 63.0816 29.2188C62.9956 31.375 62.2378 33.125 60.4487 33.125C59.4566 33.125 58.7612 32.6094 58.4644 31.8203L58.4409 31.7422H56.4566L56.4722 31.8281C56.8316 33.5547 58.3784 34.7812 60.4487 34.7812C63.2847 34.7812 64.9956 32.5312 64.9956 28.7344V28.7188C64.9956 24.6562 62.9019 22.9453 60.4956 22.9453ZM60.4878 29.0938C59.2066 29.0938 58.2769 28.1562 58.2769 26.8516V26.8359C58.2769 25.5781 59.2691 24.5859 60.5112 24.5859C61.7612 24.5859 62.7378 25.5938 62.7378 26.8828V26.8984C62.7378 28.1719 61.7612 29.0938 60.4878 29.0938ZM68.2225 27.1953C68.9412 27.1953 69.4647 26.6484 69.4647 25.9609C69.4647 25.2656 68.9412 24.7266 68.2225 24.7266C67.5116 24.7266 66.9803 25.2656 66.9803 25.9609C66.9803 26.6484 67.5116 27.1953 68.2225 27.1953ZM68.2225 32.9922C68.9412 32.9922 69.4647 32.4531 69.4647 31.7578C69.4647 31.0625 68.9412 30.5234 68.2225 30.5234C67.5116 30.5234 66.9803 31.0625 66.9803 31.7578C66.9803 32.4531 67.5116 32.9922 68.2225 32.9922ZM76.9181 34.5H78.8478V32.3359H80.3634V30.6719H78.8478V23.2266H75.9963C74.465 25.5547 72.8634 28.1484 71.4025 30.6875V32.3359H76.9181V34.5ZM73.2775 30.7188V30.6016C74.3713 28.6875 75.6759 26.6016 76.8322 24.8359H76.9494V30.7188H73.2775ZM84.7153 34.5H86.7309V23.2266H84.7231L81.7778 25.2969V27.1953L84.5825 25.2109H84.7153V34.5Z" fill="black"/>
<rect x="134" y="11" width="125" height="37" rx="18.5" fill="black"/>
<rect x="134" y="11" width="80" height="37" rx="18.5" fill="black"/>
<rect x="222" y="11" width="37" height="37" rx="18.5" fill="black"/>
<path d="M291.299 26C291.299 25.4477 291.747 25 292.299 25H293.299C293.852 25 294.299 25.4477 294.299 26V34C294.299 34.5523 293.852 35 293.299 35H292.299C291.747 35 291.299 34.5523 291.299 34V26Z" fill="black"/>
<path d="M296.299 24C296.299 23.4477 296.747 23 297.299 23H298.299C298.852 23 299.299 23.4477 299.299 24V34C299.299 34.5523 298.852 35 298.299 35H297.299C296.747 35 296.299 34.5523 296.299 34V24Z" fill="black"/>
<path d="M286.299 29.5C286.299 28.9477 286.747 28.5 287.299 28.5H288.299C288.852 28.5 289.299 28.9477 289.299 29.5V34C289.299 34.5523 288.852 35 288.299 35H287.299C286.747 35 286.299 34.5523 286.299 34V29.5Z" fill="black"/>
<path d="M281.299 32C281.299 31.4477 281.747 31 282.299 31H283.299C283.852 31 284.299 31.4477 284.299 32V34C284.299 34.5523 283.852 35 283.299 35H282.299C281.747 35 281.299 34.5523 281.299 34V32Z" fill="black"/>
<path fill-rule="evenodd" clip-rule="evenodd" d="M315.8 25.5875C318.266 25.5876 320.639 26.5551 322.426 28.2898C322.561 28.4237 322.776 28.4221 322.909 28.286L324.195 26.9605C324.263 26.8915 324.3 26.798 324.299 26.7008C324.299 26.6035 324.26 26.5105 324.192 26.4423C319.501 21.8526 312.099 21.8526 307.407 26.4423C307.339 26.5105 307.3 26.6034 307.299 26.7007C307.299 26.7979 307.336 26.8914 307.403 26.9605L308.69 28.286C308.823 28.4223 309.038 28.424 309.173 28.2898C310.961 26.5549 313.333 25.5875 315.8 25.5875ZM315.835 29.5894C317.191 29.5893 318.497 30.1035 319.502 31.032C319.638 31.1638 319.852 31.1609 319.984 31.0255L321.27 29.7C321.337 29.6304 321.375 29.5361 321.374 29.4381C321.373 29.3401 321.333 29.2466 321.264 29.1784C318.205 26.2739 313.468 26.2739 310.409 29.1784C310.34 29.2466 310.3 29.3401 310.299 29.4382C310.299 29.5362 310.336 29.6305 310.404 29.7L311.689 31.0255C311.821 31.1609 312.035 31.1638 312.171 31.032C313.175 30.1041 314.481 29.5899 315.835 29.5894ZM318.449 32.1767C318.451 32.275 318.413 32.3698 318.344 32.4386L316.121 34.7289C316.056 34.7962 315.967 34.834 315.874 34.834C315.782 34.834 315.693 34.7962 315.628 34.7289L313.404 32.4386C313.335 32.3697 313.297 32.2749 313.3 32.1766C313.302 32.0783 313.343 31.9853 313.415 31.9194C314.835 30.6935 316.914 30.6935 318.334 31.9194C318.405 31.9853 318.447 32.0784 318.449 32.1767Z" fill="black"/>
<path opacity="0.35" d="M332.799 27C332.799 25.067 334.366 23.5 336.299 23.5H353.299C355.232 23.5 356.799 25.067 356.799 27V32C356.799 33.933 355.232 35.5 353.299 35.5H336.299C334.366 35.5 332.799 33.933 332.799 32V27Z" stroke="black"/>
<path opacity="0.4" d="M358.299 28V32.2203C359.148 31.8629 359.701 31.0314 359.701 30.1102C359.701 29.1889 359.148 28.3574 358.299 28Z" fill="black"/>
<path d="M334.299 27C334.299 25.8954 335.195 25 336.299 25H353.299C354.404 25 355.299 25.8954 355.299 27V32C355.299 33.1046 354.404 34 353.299 34H336.299C335.195 34 334.299 33.1046 334.299 32V27Z" fill="black"/>
</svg>
